<svg width="99" height="233" viewBox="0 0 99 233" fill="none" xmlns="http://www.w3.org/2000/svg">
<path d="M98.77 72.2416C97.615 69.7456 94.479 69.1087 91.43 69.2737C91.816 69.1097 92.201 68.9426 92.558 68.7946C94.177 68.1196 97.439 66.9257 97.56 64.7727C97.706 62.1897 93.46 62.9776 92.221 63.4116C91.656 63.6096 91.04 63.8787 90.418 64.1917C91.888 62.5197 92.986 60.5456 93.499 58.1116C93.541 57.9196 93.413 57.7176 93.202 57.7206C90.309 57.7586 88.443 59.5856 87.116 61.9036C87.625 58.9796 86.566 56.0016 84.401 53.1406C84.274 52.9716 83.96 52.8976 83.849 53.1406C82.853 55.3286 82.391 57.5896 82.204 59.8876C81.899 59.3216 81.584 58.7616 81.306 58.1776C81.238 58.0336 81.081 57.9816 80.926 57.9746C80.866 57.9226 80.798 57.8816 80.721 57.8906C80.657 57.9006 80.595 57.9046 80.532 57.9016C80.386 57.9016 80.269 57.9986 80.224 58.1346C79.028 61.8116 78.678 66.9836 81.808 69.8096C81.776 69.9346 81.773 70.0707 81.849 70.2057C79.861 71.1377 77.932 72.2666 76.053 73.5306C75.844 73.5586 75.655 73.6176 75.502 73.7226C75.408 73.7876 75.384 73.8856 75.41 73.9726C73.885 75.0296 72.392 76.1687 70.931 77.3697C71.835 75.9207 72.301 74.0797 71.516 72.6337C71.429 72.4737 71.185 72.4396 71.061 72.5746C69.781 73.9636 69.099 76.0316 69.644 77.8606C69.519 78.0956 69.406 78.3326 69.318 78.5736C69.297 78.6306 69.305 78.6786 69.32 78.7226C65.083 82.3696 61.091 86.4126 57.259 90.0896C57.17 90.1316 57.084 90.1776 56.995 90.2166C56.914 90.2536 56.902 90.3367 56.924 90.4097C56.448 90.8647 55.974 91.3167 55.502 91.7587C54.902 92.2247 54.352 92.7466 53.885 93.3586C53.512 93.7356 53.122 94.0996 52.76 94.4836C54.707 90.9626 55.905 87.0536 56.946 83.1376C57.511 81.0126 58.134 78.8216 58.714 76.5986C59.584 76.3646 60.42 75.4697 60.986 74.8167C61.619 74.0857 62.017 73.1886 61.954 72.2136C61.938 71.9626 61.684 71.7997 61.455 71.9267C60.625 72.3867 59.91 73.2277 59.366 74.0067C60.092 70.9547 60.673 67.8626 60.854 64.8116C61.036 64.9006 61.275 64.8877 61.421 64.6757C61.586 64.4357 61.744 64.1956 61.899 63.9526C62.081 63.6716 62.238 63.3776 62.406 63.0886C66.684 61.9306 71.033 57.0496 69.397 52.6766C69.299 52.4156 68.882 52.5216 68.973 52.7936C70.359 56.8926 66.526 60.2086 62.988 62.0416C63.217 61.5966 63.44 61.1496 63.643 60.6906C63.737 60.5626 63.799 60.4126 63.86 60.2056C63.88 60.1386 63.857 60.0846 63.842 60.0296C66.982 57.8936 68.905 53.7536 68.509 50.0876C68.491 49.9126 68.352 49.7836 68.168 49.8286C66.839 50.1526 66.019 50.9906 65.327 52.0226C65.404 50.5846 65.372 49.1896 65.304 48.0066C65.295 47.8416 65.129 47.6686 64.951 47.7376C63.012 48.4926 61.705 50.0896 61.199 52.0526C60.679 51.1066 58.392 47.8546 57.592 49.7606C57.506 49.4236 57.436 49.0896 57.402 48.7636C57.374 48.4816 57.082 48.3496 56.859 48.5386C54.131 50.8526 54.325 58.4536 57.603 60.7216C56.162 60.3206 54.854 59.5766 53.789 58.5086C53.066 57.7836 52.617 56.8306 52.495 55.8206C52.344 54.5856 53.112 53.6496 53.621 52.6236C53.684 52.4976 53.549 52.3216 53.413 52.4146C51.559 53.6756 51.51 56.0736 52.505 57.8936C53.616 59.9266 55.993 61.0696 58.217 61.2166C58.289 61.2206 58.33 61.1746 58.353 61.1196C58.536 61.1906 58.714 61.2656 58.911 61.3066C59.129 62.0856 59.271 62.8826 59.374 63.7046C59.422 64.0926 59.946 64.2066 60.076 63.7996C60.081 63.7846 60.085 63.7686 60.089 63.7536C60.167 63.7506 60.239 63.7186 60.291 63.6556C59.783 69.4536 58.667 75.6207 56.93 81.5627C57.244 79.3687 57.2 77.1406 56.85 74.8316C56.067 69.6816 51.6 67.5036 49.349 63.2056C49.22 62.9586 48.845 63.1316 48.91 63.3896C50.152 68.2766 49.558 73.3307 50.166 78.3027C50.81 83.5747 53.39 87.7696 52.457 93.2946C51.834 94.5826 51.182 95.8406 50.482 97.0446C48.239 99.7376 46.277 102.609 44.594 105.638C44.134 101.765 43.722 97.8877 43.35 94.0067C44.52 92.3887 45.129 90.0966 44.716 88.2066C44.66 87.9526 44.361 87.9316 44.192 88.0676C43.748 88.4216 43.305 89.0037 42.949 89.6667C42.55 84.9847 42.23 80.2947 42.04 75.5917C41.993 74.4337 41.964 73.2786 41.952 72.1266C43.587 70.6286 44.436 67.9097 44.34 65.7847C44.328 65.5197 44.018 65.3826 43.821 65.5696C42.94 66.4066 42.333 67.4366 41.956 68.5546C41.978 67.0236 42.027 65.4976 42.095 63.9726C42.11 63.9486 42.13 63.9286 42.132 63.8936C42.586 54.9566 47.076 46.7716 51.941 39.4356C55.608 33.9076 60.628 29.4126 63.098 23.1866C63.233 24.1746 63.123 25.1456 62.742 26.0976C62.436 27.2766 62.076 28.4376 61.66 29.5826C60.524 32.9566 58.812 36.1636 56.946 39.1816C53.786 44.2916 48.994 48.0856 45.379 52.8286C45.241 53.0106 45.532 53.2126 45.685 53.0646C54.752 44.3286 63.256 34.0556 64.204 20.9676C64.223 20.7056 63.843 20.5416 63.671 20.7476C59.487 25.7416 54.241 29.6826 50.249 34.8496C46.306 39.9546 44.319 46.6126 43.601 52.9276C43.588 53.0446 43.673 53.1146 43.771 53.1436C43.291 54.4116 42.863 55.7016 42.547 57.0366C43.193 49.1016 44.246 41.2196 45.182 33.2946C46.471 31.9436 47.492 29.9676 47.732 28.1546C47.764 27.9146 47.464 27.8126 47.29 27.9016C46.58 28.2586 46.046 28.8466 45.62 29.5096C45.843 27.4936 46.046 25.4716 46.235 23.4466C46.33 23.3936 46.402 23.3026 46.372 23.1666C46.347 23.0606 46.314 22.9556 46.287 22.8506C46.304 22.6656 46.32 22.4816 46.336 22.2976C48.04 21.6616 49.522 20.2046 49.883 18.4196C49.994 18.3896 50.105 18.3476 50.217 18.3156C54.102 21.3116 59.561 17.6696 63.892 18.1196C64.145 18.1466 64.285 17.8686 64.245 17.6576C63.734 14.9576 60.845 14.3196 58.435 14.4686C60.73 12.7766 61.862 10.3276 63.252 7.90965C63.391 7.66565 63.209 7.39665 62.946 7.37865C60.582 7.22465 58.065 7.14665 56.241 8.69365C56.728 7.06165 56.872 5.40565 56.553 3.88665C56.526 3.75065 56.326 3.65765 56.211 3.74665C56.029 3.88365 55.939 3.95265 55.862 4.01165C55.865 3.99565 55.866 3.97965 55.869 3.96365C56.035 3.08765 56.522 2.92965 56.47 2.24665C56.459 2.10165 56.379 1.96465 56.226 1.92765C53.439 1.24865 51.629 3.11164 50.484 5.39065C50.215 3.68165 49.715 1.99564 49.466 0.266645C49.44 0.0856445 49.213 -0.0103528 49.054 0.0326472C45.973 0.868647 45.235 3.85265 45.154 6.72265C44.155 4.34665 42.644 2.15264 40.856 0.321645C40.683 0.143645 40.404 0.242645 40.33 0.460645C39.232 3.66664 39.017 6.86765 40.031 9.76365C38.425 8.19065 36.51 6.90965 34.516 6.00565C34.295 5.90465 34.066 6.11065 34.183 6.34065C35.729 9.37465 35.736 12.7746 37.744 15.6246C38.738 17.0366 40.441 18.0296 42.093 18.9506C42.262 19.7806 42.571 20.5867 43.112 21.2157C43.704 21.9037 44.706 22.6866 45.674 22.6076C45.675 22.6156 45.677 22.6226 45.68 22.6306C44.931 28.2546 44.12 33.8656 43.373 39.4776C42.965 38.0546 42.452 36.6906 42.292 35.2236C42.705 36.3016 42.729 37.4616 43.113 38.5996C43.178 38.7906 43.439 38.7486 43.455 38.5536C43.577 36.9976 43.137 35.1306 42.203 33.8706C42.037 33.6456 41.688 33.7156 41.672 34.0146C41.559 36.1866 42.24 38.4426 43.258 40.3556C42.49 46.1776 41.808 52.0056 41.387 57.8596C41.019 57.3556 40.52 56.9926 39.878 56.9456C39.703 56.9336 39.545 57.1046 39.55 57.2736C39.589 58.7276 40.194 60.2606 40.735 61.5906C40.834 61.8306 40.95 62.1486 41.119 62.3986C40.98 65.3156 40.911 68.2407 40.943 71.1767C40.972 73.8577 41.061 76.5367 41.186 79.2157C40.748 78.1017 40.121 77.0756 39.353 76.3316C39.165 76.1486 38.765 76.2657 38.794 76.5627C39.052 79.1737 40.044 81.6257 41.35 83.8837C41.376 83.9277 41.415 83.9376 41.449 83.9586C41.955 91.7326 42.785 99.4907 43.745 107.229C43.565 107.578 43.383 107.925 43.209 108.279C41.725 101.268 38.277 94.6897 34.792 88.3757C34.82 88.3197 34.825 88.2586 34.798 88.1936C35.148 87.3176 35.064 86.0877 35.023 85.2377C34.968 84.1337 34.704 82.9637 33.89 82.1727C33.7 81.9887 33.363 82.0666 33.294 82.3306C33.041 83.3016 32.974 84.3336 33.107 85.3316C32.808 84.7906 32.51 84.2506 32.217 83.7126C30.519 80.6046 29.014 77.4586 27.644 74.2766C27.673 74.2686 27.702 74.2596 27.724 74.2406C29.157 73.0266 29.021 70.1056 28.846 68.4286C28.822 68.1916 28.499 67.9657 28.309 68.2057C27.288 69.4927 26.96 71.1386 27.007 72.7626C23.902 65.2726 21.587 57.5616 19.784 49.5276L19.788 49.5246C19.922 49.3076 20.049 49.0866 20.17 48.8616C20.636 48.4796 20.993 47.9066 21.123 47.3976C22.989 47.1896 24.903 46.5526 26.535 45.7526C27.466 45.2956 29.852 43.2376 27.871 42.3576C27.731 42.2956 27.531 42.3976 27.59 42.5736C27.866 43.3996 28.219 43.7406 27.461 44.4846C26.798 45.1336 25.806 45.5126 24.96 45.8386C23.754 46.3036 22.416 46.7296 21.093 46.9206C22.835 46.2826 24.549 45.1796 25.799 44.1396C27.867 42.4206 29.464 40.3366 29.78 37.6066C29.801 37.4306 29.625 37.3166 29.476 37.3016C27.011 37.0666 25.558 38.1376 24.384 39.6326C25.251 37.5786 25.61 35.3446 25.171 33.0036C25.137 32.8236 24.885 32.7716 24.767 32.8966C23.452 34.2856 22.39 35.7386 21.44 37.3916C21.256 35.1926 20.51 33.0116 19.309 31.0396C19.219 30.8906 19.009 30.8596 18.884 30.9846C17.168 32.6946 16.545 35.1066 16.75 37.4836C15.593 35.8296 14.24 34.2796 13.29 32.9116C13.186 32.7616 12.941 32.6856 12.806 32.8486C10.671 35.4116 11.115 39.0826 12.919 41.7886C11.063 40.9286 9.03699 40.4246 7.54099 40.2946C7.31899 40.2746 7.16099 40.5236 7.21599 40.7216C8.58899 45.7036 13.363 47.8596 18.13 48.3906C18.194 48.3976 18.239 48.3656 18.273 48.3206C18.333 48.3416 18.393 48.3756 18.456 48.3876C18.636 48.4196 18.811 48.1996 18.649 48.0546C18.342 47.7796 18.057 47.4136 17.782 47.0286C17.776 46.9636 17.756 46.9016 17.746 46.8366C18.11 47.1726 18.452 47.5336 18.774 47.9296C18.784 47.9416 18.795 47.9456 18.804 47.9546C18.805 47.9726 18.807 47.9886 18.807 48.0056C18.811 48.2726 18.999 48.4126 19.202 48.4376C19.227 48.5566 19.252 48.6756 19.277 48.7956C19.24 48.8756 19.202 48.9556 19.165 49.0356C19.159 49.0486 19.149 49.0566 19.145 49.0696C19.143 49.0726 19.146 49.0766 19.145 49.0806C19.137 49.0986 19.128 49.1166 19.12 49.1336C18.978 49.4376 19.215 49.6996 19.464 49.7076C20.252 53.4846 21.139 57.2136 22.174 60.8916C22.149 60.8806 22.133 60.8626 22.099 60.8626C20.647 60.8586 19.18 59.6796 19.152 58.1956C19.599 58.4996 20.006 58.8436 20.375 59.2496C20.799 59.7146 21.104 60.2946 21.611 60.6766C21.772 60.7986 21.98 60.5986 21.933 60.4286C21.764 59.7966 21.255 59.2756 20.826 58.7986C20.317 58.2316 19.712 57.7446 19.037 57.3906C18.879 57.3086 18.63 57.3696 18.595 57.5706C18.241 59.5916 20.059 61.5136 22.099 61.2466C22.174 61.2376 22.217 61.1936 22.247 61.1426C23.849 66.7806 25.813 72.2956 28.382 77.6536C27.107 76.0036 25.817 74.3316 24.492 72.6866C19.546 64.0946 12.359 55.9386 1.67699 55.7626C1.46799 55.7596 1.41799 56.0866 1.62699 56.1316C7.07999 57.3196 11.64 58.6116 15.946 62.3776C18.466 64.5816 20.449 67.2756 22.303 70.0546C16.823 63.6576 10.544 58.0856 1.90399 56.3816C1.72299 56.3456 1.65899 56.5906 1.82799 56.6546C8.31899 59.1306 13.56 61.8436 18.574 66.7396C20.671 68.7886 22.586 71.0316 24.444 73.3236C24.464 73.3536 24.484 73.3837 24.503 73.4127C21.84 70.6137 18.028 69.2466 14.623 67.5546C9.29999 64.9106 5.36399 60.5236 1.22499 56.4026C1.07599 56.2536 0.854983 56.4776 0.994983 56.6336C4.01198 60.0156 7.14299 63.2327 10.809 65.9127C15.164 69.0967 20.339 70.6866 24.621 74.0436C24.723 74.1236 24.838 74.0886 24.894 74.0136C24.929 74.0676 24.965 74.1227 25.001 74.1777C25.045 74.2457 25.113 74.2517 25.171 74.2297C26.488 75.8727 27.788 77.5286 29.096 79.1566C32.301 85.5426 35.713 91.6237 38.537 97.9807C37.545 96.7477 35.849 95.7577 34.391 95.6897C34.115 95.6777 33.968 95.9946 34.087 96.2186C34.955 97.8296 36.836 99.3377 38.74 99.2977C38.896 99.2947 38.965 99.1657 38.951 99.0417C38.963 99.0407 38.97 99.0346 38.982 99.0296C40.424 102.372 41.709 105.791 42.688 109.385C41.818 111.263 41.067 113.199 40.39 115.169C40.615 113.523 40.473 111.635 39.171 110.55C38.989 110.4 38.659 110.429 38.602 110.701C38.268 112.31 38.608 114.629 39.867 115.848C39.882 115.94 39.888 116.038 39.907 116.129C39.92 116.188 39.964 116.216 40.012 116.232C39.24 118.621 38.604 121.07 38.111 123.575C37.937 124.465 37.791 125.357 37.656 126.253C37.803 124.233 37.864 122.207 37.848 120.148C37.809 115.344 36.133 111.197 35.298 106.536C35.235 106.188 34.696 106.211 34.618 106.536C32.369 115.871 33.708 125.35 36.977 134.26C36.801 141.948 37.901 149.694 39.743 157.146C36.925 152.017 32.764 147.403 28.724 143.17C28.619 142.131 28.495 141.093 28.367 140.056C29.483 136.952 31.286 133.574 29.944 130.379C29.828 130.105 29.497 130.102 29.381 130.379C28.985 131.338 28.462 132.208 27.977 133.108C28.044 131.375 28.049 129.645 28.117 128C28.126 127.792 27.886 127.583 27.679 127.666C25.191 128.679 24.14 131.298 24.232 133.932C22.836 132.038 20.91 130.494 18.843 129.449C18.644 129.348 18.405 129.471 18.4 129.703C18.352 131.799 19.295 133.955 20.266 135.823C20.194 135.772 20.111 135.713 20.044 135.666C18.762 134.758 16.034 133.139 14.522 134.524C12.356 136.507 14.679 138.299 17.375 139.431C16.956 139.425 16.563 139.438 16.22 139.47C13.204 139.75 12.938 142.285 14.038 144.634C14.16 144.898 14.516 144.833 14.655 144.634C16.716 141.678 22.292 142.793 25.273 143.283C25.479 143.316 25.546 143.055 25.358 142.975C22.453 141.755 16.928 141.221 14.459 143.77C14.091 142.791 13.833 141.69 14.636 140.87C15.427 140.06 16.977 140.18 17.993 140.262C20.201 140.437 21.906 141.55 23.935 142.2C23.984 142.216 24.031 142.207 24.073 142.187C25.075 142.764 26.154 143.219 27.175 143.302L27.215 143.422C27.321 143.737 27.681 143.747 27.863 143.574C27.938 143.651 28.042 143.695 28.15 143.696C28.185 143.847 28.207 144.004 28.247 144.154C28.33 144.468 28.854 144.412 28.825 144.075C28.821 144.021 28.812 143.968 28.807 143.914C30.871 146.232 32.848 148.633 34.713 151.098C36.993 154.11 38.645 157.473 40.666 160.633C40.737 160.884 40.802 161.135 40.874 161.385C41.297 162.86 41.77 164.309 42.27 165.744C37.337 158.121 29.292 150.534 21.155 150.706C20.831 150.712 20.676 151.097 20.896 151.332C24.521 155.188 26.951 160.54 31.19 163.81C34.684 166.506 39.145 168.074 42.568 170.852C43.208 171.669 43.851 172.484 44.511 173.291C44.61 173.41 44.783 173.258 44.718 173.131C44.637 172.975 44.547 172.825 44.462 172.671C44.806 173.063 45.135 173.471 45.436 173.913C46.76 177.092 48.13 180.237 49.403 183.414C49.153 183.272 48.904 183.13 48.653 182.987C48.082 181.963 47.188 181.023 46.445 180.174C45.615 179.226 44.637 178.254 43.386 177.924C43.12 177.853 42.785 178.118 42.901 178.409C43.982 181.138 46.866 183.429 49.699 184.175C51.641 189.088 53.333 194.084 54.23 199.412C54.192 200.308 54.13 201.203 54.074 202.096C53.544 199.854 52.471 197.638 50.668 196.869C50.33 196.726 50.029 196.956 50.082 197.321C50.496 200.172 51.204 203.987 53.801 205.713C53.028 214.445 51.457 223.111 49.083 231.94C48.993 232.272 49.46 232.38 49.581 232.078C52.159 225.724 53.807 219.174 54.768 212.501C57.496 210.255 60.171 205.979 59.716 202.51C59.685 202.267 59.426 202.024 59.174 202.199C57.016 203.689 56.324 206.04 55.288 208.246C55.867 202.504 55.987 196.685 55.773 190.831C57.744 188.545 58.419 185.241 58.943 182.371C58.995 182.086 58.703 181.78 58.417 181.968C57.865 182.331 56.463 184.482 55.558 186.501C55.532 186.077 55.509 185.653 55.481 185.229C55.96 179.765 56.604 174.357 57.389 168.988C61.227 164.711 64.328 159.773 67.614 155.082C72.383 148.273 77.009 141.65 80.478 134.054C80.608 133.771 80.397 133.409 80.058 133.506C70.591 136.195 63.93 144.06 60.163 153.048C60.959 149.086 61.846 145.139 62.785 141.193C62.792 141.223 62.794 141.252 62.801 141.282C62.834 141.427 63.064 141.427 63.096 141.282C63.261 140.535 63.333 139.726 63.325 138.901C63.886 136.612 64.475 134.323 65.082 132.035C67.106 131.033 69.01 129.152 69.87 127.234C69.998 126.949 69.793 126.662 69.475 126.722C68.14 126.975 66.904 127.882 65.925 128.953C66.364 127.348 66.798 125.743 67.261 124.137C67.267 124.134 67.271 124.134 67.277 124.13C68.43 123.377 69.469 122.485 70.497 121.577C70.389 121.734 70.281 121.892 70.184 122.059C70.103 122.196 70.267 122.373 70.407 122.282C70.734 122.07 71.008 121.783 71.253 121.469C74.382 121.603 78.217 119.068 80.205 117.46C80.434 117.275 80.242 116.882 79.97 116.892C78.062 116.956 76.064 117.483 74.134 118.152C76.499 116.225 78.569 113.901 80.048 111.328C80.166 111.122 80.014 110.872 79.781 110.865C77.014 110.787 74.935 112.112 73.218 113.948C74.015 111.359 73.964 108.564 72.69 106.28C72.583 106.087 72.328 106.075 72.173 106.214C70.494 107.721 69.32 109.773 68.613 111.997C68.315 110.821 67.827 109.703 67.085 108.725C66.528 107.99 63.582 105.285 62.749 107.081C61.662 109.428 62.524 112.187 63.365 114.494C61.992 113.46 60.338 112.873 58.883 113.283C58.729 113.328 58.619 113.471 58.617 113.633C58.584 117.328 62.22 121.281 66.014 121.417C66.229 122.123 66.474 122.82 66.744 123.515C66.762 123.563 66.796 123.589 66.832 123.609C66.83 123.639 66.827 123.669 66.834 123.699C66.804 123.77 66.793 123.845 66.807 123.915C66.101 126.099 65.414 128.301 64.739 130.517L64.719 130.547C64.69 130.593 64.684 130.644 64.687 130.693C64.602 130.975 64.52 131.26 64.434 131.544C64.137 131.755 63.841 131.971 63.551 132.2C63.372 132.343 63.567 132.623 63.765 132.568C63.902 132.529 64.037 132.468 64.175 132.421C63.782 133.731 63.387 135.036 63.009 136.354C62.684 134.99 62.116 133.706 61.267 132.717C61.125 132.552 60.823 132.639 60.777 132.846C60.333 134.883 61.171 137.396 62.167 139.319C61.485 141.775 60.835 144.247 60.217 146.728C60.121 144.905 59.676 143.063 58.667 141.663C58.551 141.502 58.26 141.444 58.156 141.663C57.163 143.777 58.169 147.005 59.666 148.794C59.67 148.841 59.678 148.885 59.682 148.932C58.163 155.257 56.881 161.645 55.958 168.059C55.447 169.254 54.894 170.434 54.235 171.571C54.081 171.837 54.493 172.076 54.646 171.81C54.78 171.577 54.896 171.334 55.024 171.097C55.109 171.195 55.252 171.234 55.376 171.113C55.432 171.057 55.483 170.998 55.539 170.943C55.253 173.207 55.012 175.473 54.823 177.737C53.973 169.633 52.714 161.534 51.417 153.557C51.422 153.552 51.425 153.546 51.429 153.542C51.464 153.51 51.489 153.479 51.505 153.438C53.193 151.035 54.338 147.39 53.283 144.74C53.192 144.51 52.863 144.34 52.667 144.576C51.722 145.726 50.989 147.232 50.641 148.804C49.697 143.019 48.773 137.313 48.016 131.733C47.6 128.66 47.185 125.588 46.77 122.515C48.201 120.766 49.123 118.099 48.945 115.906C48.923 115.62 48.547 115.38 48.322 115.648C47.528 116.589 46.726 117.842 46.318 119.147C45.802 115.26 45.296 111.374 44.822 107.482C46.219 104.816 47.827 102.257 49.628 99.8156C49.7 99.8496 49.788 99.8617 49.869 99.7977C50.679 99.1657 52.155 98.9857 53.26 99.1167C52.873 99.6027 52.441 100.034 51.896 100.37C51.06 100.884 50.249 100.775 49.335 100.893C49.106 100.923 48.939 101.254 49.201 101.382C51.052 102.28 53.218 100.505 54.16 99.0546C54.275 98.8776 54.165 98.6137 53.962 98.5647C52.846 98.2997 51.32 98.4127 50.225 99.0157C51.592 97.2257 53.063 95.5006 54.643 93.8586C55.551 92.9136 56.495 92.0017 57.45 91.0997C59.491 89.9627 61.802 89.2066 63.97 88.3676C69.108 86.3776 73.888 85.0766 79.404 84.5096C79.636 84.4866 79.646 84.1496 79.404 84.1416C73.507 83.9336 68.173 86.0947 62.791 88.2637C61.495 88.7867 60.104 89.2797 58.771 89.8707C58.791 89.8537 58.809 89.8376 58.826 89.8206C61.801 88.4286 64.476 86.5186 67.368 84.9296C70.787 83.0496 74.758 82.7587 78.569 82.7587C80.528 82.7587 90.034 82.3916 85.527 85.1286C79.77 88.6236 74.777 89.6436 68.133 89.7816C63.787 89.8706 59.847 90.4697 56.059 92.6877C55.897 92.7827 56.006 93.0716 56.191 92.9996C62.567 90.4966 68.746 90.7307 75.434 90.1577C80.44 89.7297 84.806 86.2246 89.051 83.8956C89.321 83.7476 89.291 83.2586 88.961 83.2036C83.383 82.2826 77.933 81.5746 72.308 82.5166C67.927 83.2506 64.269 86.0276 60.483 88.3356C62.892 86.1716 65.333 84.0377 67.685 81.8267C69.983 79.6657 72.308 77.5987 74.747 75.6877C75.764 76.0397 76.843 76.4266 77.929 76.2646C78.529 76.1746 79.579 75.6216 79.452 74.8796C79.339 74.2236 78.472 73.9566 77.93 73.7966C77.795 73.7566 77.634 73.7126 77.461 73.6716C78.892 72.6606 80.366 71.7026 81.908 70.8226C81.986 70.9166 82.096 70.9837 82.242 70.9837C82.359 70.9837 82.474 70.9687 82.592 70.9657C82.965 71.2437 83.38 71.4547 83.852 71.6087C83.998 71.6557 84.095 71.6017 84.166 71.5207C84.215 71.5427 84.268 71.5587 84.324 71.5637C84.394 71.5697 84.464 71.5837 84.534 71.5917C86.893 75.7577 90.582 79.7347 95.67 79.7587C95.96 79.7597 96.073 79.4657 95.972 79.2327C95.158 77.3417 94.162 75.5246 92.576 74.2426C94.931 74.3036 97.247 73.7817 98.729 72.6347C98.838 72.5327 98.824 72.3586 98.77 72.2416ZM59.547 74.8127C59.602 74.7107 59.664 74.6177 59.731 74.5227C59.922 74.2497 60.145 73.9986 60.371 73.7516C60.633 73.4626 60.925 73.1546 61.24 72.8906C61.114 73.5016 60.777 74.0296 60.343 74.5266C60.159 74.7366 59.944 74.9136 59.723 75.0846C59.736 74.9736 59.675 74.8466 59.543 74.8536C59.524 74.8546 59.518 74.8576 59.506 74.8596C59.52 74.8496 59.534 74.8367 59.547 74.8127ZM65.244 53.1076C65.454 52.7516 65.664 52.3946 65.894 52.0456C65.909 52.0236 67.975 49.9056 67.965 50.7026C67.943 52.3066 67.516 53.8086 66.835 55.2466C66.003 57.0066 64.733 58.2616 63.252 59.3026C64.469 57.6226 65.025 55.3666 65.244 53.1076ZM61.512 52.0496C61.835 51.4666 62.25 50.6206 62.06 51.0576C62.183 50.8406 62.308 50.6236 62.433 50.4086C62.941 49.4746 63.716 48.8816 64.757 48.6316C64.775 49.9526 64.734 51.2776 64.633 52.5946C64.406 55.5886 63.421 57.7466 61.629 59.7056C61.631 59.5806 61.638 59.4576 61.637 59.3326C62.72 57.3626 62.409 54.7146 61.501 52.6796C61.53 52.5226 61.559 52.3656 61.585 52.2086C61.598 52.1316 61.56 52.0816 61.512 52.0496ZM59.321 60.3536C59.194 60.0256 59.048 59.7006 58.873 59.3816C58.701 59.0726 58.154 59.2876 58.292 59.6256C58.464 60.0526 58.632 60.4816 58.799 60.9106C55.307 59.6276 54.679 52.2026 56.883 49.4446C57.122 50.7866 57.621 52.0366 58.167 53.2996C59.24 55.7806 59.82 57.7666 59.321 60.3536ZM60.021 61.2516C60.003 61.2666 59.99 61.2806 59.972 61.2956C59.894 61.3616 59.901 61.4606 59.949 61.5336C59.919 61.6586 59.885 61.7846 59.853 61.9096C59.787 61.7256 59.721 61.5416 59.652 61.3586C59.725 61.2826 59.691 61.1326 59.564 61.0996C59.561 61.0866 59.555 61.0746 59.552 61.0606C61.825 57.7276 58.786 53.7466 57.718 50.2376C57.761 50.2206 57.798 50.1896 57.816 50.1336C58.374 48.3436 61.192 53.4556 61.318 53.8176C61.852 55.3496 61.763 56.8276 61.308 58.2416C61.145 58.2166 60.965 58.2966 60.881 58.4976C60.512 59.3916 60.259 60.3186 60.021 61.2516ZM43.714 66.5676C43.65 67.5176 43.408 68.4116 43.014 69.3106C42.762 69.8866 42.409 70.4066 42.072 70.9326C42.174 69.3316 42.689 67.7906 43.714 66.5676ZM49.783 36.6246C53.168 31.1836 58.545 27.3077 62.859 22.6597C57.975 32.8947 48.7 41.4006 44.264 51.8806C45.159 46.4566 46.849 41.3406 49.783 36.6246ZM48.417 18.3967C47.95 18.9117 47.575 19.4796 47.27 20.1206C47.571 19.3196 47.909 18.5426 48.366 17.8346C48.425 17.8106 48.483 17.7856 48.541 17.7606C48.51 17.9756 48.482 18.1917 48.417 18.3967ZM61.309 15.3866C61.571 15.4616 64.687 17.4846 63.16 17.2926C62.408 17.1976 61.62 17.3246 60.877 17.4226C57.316 17.8926 54.485 19.1636 51.041 18.0546C53.447 17.3066 55.766 16.2696 57.844 14.8526C57.879 14.9136 57.933 14.9626 58.032 14.9606C59.151 14.9416 60.229 15.0766 61.309 15.3866ZM61.615 7.97565C62.659 8.01465 62.251 8.18465 61.786 8.98765C61.262 9.89565 60.767 10.8036 60.183 11.6756C57.923 15.0546 53.697 16.2406 50.057 17.7386C50.037 17.7426 50.021 17.7516 50.002 17.7596C49.981 17.7686 49.959 17.7776 49.938 17.7856C49.87 17.5736 49.629 17.4826 49.412 17.5326C49.417 17.4716 49.403 17.4056 49.405 17.3446C52.279 15.7816 54.771 12.7436 55.967 9.50665C57.478 7.96165 59.585 7.89665 61.615 7.97565ZM55.783 4.57065C56.488 4.24965 55.872 7.66865 55.808 7.92765C55.441 9.38165 54.676 10.7116 53.879 11.9656C52.72 13.7886 51.21 15.2396 49.481 16.4206C51.395 14.8656 53.038 12.9326 54.316 10.8616C54.979 9.78665 55.343 8.55864 55.466 7.30764C55.56 6.38864 55.645 5.47965 55.783 4.57065ZM50.53 9.07665C50.694 8.14465 50.686 7.23465 50.6 6.33165C51.512 4.80265 52.301 3.21065 54.081 2.46365C56.28 1.54265 54.973 4.84265 54.884 5.53865C54.509 8.49565 53.905 10.4496 52.009 12.8206C51.023 14.0536 49.825 15.0746 48.66 16.1276C48.658 16.1286 48.656 16.1296 48.656 16.1296C48.653 16.1316 48.652 16.1336 48.65 16.1356C48.277 16.4736 47.917 16.8226 47.556 17.1746C48.973 14.6406 50.02 11.9546 50.53 9.07665ZM39.925 6.72665C39.82 5.57165 39.993 4.36865 40.183 3.23965C40.548 1.08165 40.793 1.04165 42.307 3.01365C45.464 7.12765 45.858 11.7246 45.303 16.6726C45.065 16.0326 44.742 15.4266 44.261 14.8776C44.082 14.6726 43.7 14.8306 43.719 15.1026C43.728 15.2346 43.748 15.3616 43.761 15.4916C43.169 13.7536 42.185 12.1716 40.967 10.7706C40.399 9.52665 40.059 8.18365 39.925 6.72665ZM42.361 17.5606C42.351 17.2836 41.926 17.2806 41.929 17.5606C41.932 17.7486 41.956 17.9436 41.972 18.1356C40.873 17.4296 39.768 16.7346 38.77 15.8766C37.176 14.5066 36.564 12.3606 36.03 10.4206C35.869 9.83765 35.432 7.06964 34.957 6.80764C37.106 7.99764 39.016 9.49265 40.606 11.3666C40.794 11.5896 40.969 11.8146 41.135 12.0446C41.261 12.2426 41.387 12.4406 41.527 12.6356C42.478 14.1506 43.036 15.8086 43.535 17.5226C43.434 17.5846 43.356 17.6926 43.389 17.8246C43.502 18.2726 43.615 18.8096 43.769 19.3456C43.346 19.0356 42.91 18.7436 42.471 18.4566C42.41 18.1626 42.372 17.8626 42.361 17.5606ZM45.312 21.7756C45.208 21.7476 45.104 21.7196 44.999 21.6866C44.45 21.5146 43.995 21.1236 43.61 20.7146C43.221 20.3016 42.931 19.8196 42.725 19.3036C43.164 19.5486 43.594 19.7916 43.995 20.0386C44.276 20.7796 44.68 21.4397 45.331 21.7567C45.325 21.7627 45.32 21.7706 45.312 21.7756ZM45.421 17.0166C45.555 17.0746 45.745 17.0376 45.798 16.8736C46.781 13.8436 46.574 10.7406 45.587 7.85664C45.672 6.56564 45.788 5.29065 46.082 4.02264C46.113 3.88465 48.733 -0.319354 48.92 1.39665C48.997 2.10065 49.213 2.86364 49.374 3.55164C50.488 8.31864 48.996 12.0306 47.32 16.1646C47.306 16.0876 47.3 16.0116 47.286 15.9346C47.2 15.5216 46.548 15.5266 46.459 15.9346C46.238 16.9376 46.041 17.9446 45.869 18.9536C45.755 18.2936 45.623 17.6416 45.421 17.0166ZM45.489 30.6686C45.889 29.9836 46.397 29.2836 47.002 28.7966C46.662 29.9866 45.958 30.9496 45.34 31.9856C45.391 31.5466 45.439 31.1076 45.489 30.6686ZM39.613 77.6726C40.506 78.9916 40.703 80.5057 41.064 82.0437C40.431 80.6357 39.899 79.1886 39.613 77.6726ZM41.187 60.9836C41.106 60.7506 41.02 60.5186 40.942 60.2836C40.67 59.4606 40.361 58.5746 40.252 57.6956C40.919 57.9196 41.168 58.5786 41.288 59.3246C41.253 59.8776 41.217 60.4306 41.187 60.9836ZM43.06 90.9957C43.32 90.2277 43.73 89.4866 44.19 88.9516C44.329 90.3776 43.794 91.5727 43.236 92.8087C43.179 92.2037 43.113 91.6007 43.06 90.9957ZM28.41 37.8466C29.863 37.7356 28.342 40.2966 27.975 40.8976C27.225 42.1266 26.087 43.1306 24.957 43.9966C23.78 44.8986 22.502 45.4696 21.194 45.9976C21.276 45.5976 21.322 45.1916 21.347 44.7816C23.745 42.3936 24.503 38.1456 28.41 37.8466ZM21.465 37.7706C21.545 37.8036 21.64 37.7976 21.698 37.7016C22.158 36.9376 24.729 32.5286 24.925 34.7706C25.079 36.5526 24.476 38.2796 23.706 39.8486C23.031 41.2266 22.065 42.3676 21.039 43.4586C20.892 43.4426 20.733 43.4906 20.631 43.6296C20.635 43.3346 20.637 43.0406 20.64 42.7466C21.316 41.1406 21.554 39.4546 21.465 37.7706ZM8.02999 41.0376C11.009 41.4046 14.021 42.7956 15.978 45.0726C15.853 45.2016 15.791 45.4016 15.894 45.5606C16.272 46.1546 16.889 47.2546 17.599 47.8976C13.548 47.1056 9.43799 45.1106 8.02999 41.0376ZM17.888 44.1056C17.752 44.6216 17.765 45.1206 17.857 45.6076C17.835 45.6706 17.814 45.7346 17.789 45.7986C17.63 45.6806 17.468 45.5676 17.298 45.4616C17.196 45.2636 17.08 45.0706 16.951 44.8836C16.992 44.7926 16.975 44.6636 16.853 44.6126C16.789 44.5866 16.732 44.5496 16.67 44.5206C15.996 43.6836 15.075 42.9666 14.041 42.3726C13.401 41.5456 12.896 40.6016 12.508 39.6286C12.142 38.7086 12.008 37.7146 11.975 36.7316C11.949 36.0116 12.441 32.8216 13.445 34.1866C14.65 35.8256 16.053 37.4516 17.034 39.1866C17.268 40.1066 17.631 40.9886 18.093 41.7966C18.239 42.4396 18.3 43.1026 18.249 43.7916C18.086 43.8146 17.937 43.9196 17.888 44.1056ZM19.021 44.6336C18.99 44.5656 18.951 44.4986 18.92 44.4306C19.046 43.8776 19.075 43.3266 19.032 42.7786C19.059 42.7356 19.07 42.6856 19.029 42.6266C19.021 42.6166 19.016 42.6046 19.009 42.5936C18.859 41.1806 18.225 39.7906 17.392 38.4576C17.086 36.5346 17.296 34.5286 18.133 32.7936C19.575 29.8046 20.816 36.2786 20.925 37.3696C21.087 38.9686 20.734 40.4586 20.245 41.9206C20.087 41.8996 19.922 41.9446 19.834 42.1136C19.413 42.9296 19.168 43.7726 19.021 44.6336ZM28.235 69.4807C28.235 70.1337 28.207 70.7846 28.109 71.4356C28.021 72.0196 27.795 72.5676 27.616 73.1236C27.601 71.8616 27.68 70.5977 28.235 69.4807ZM34.15 86.7697C33.755 85.6367 33.631 84.4316 33.824 83.2356C34.464 84.2876 34.262 85.5437 34.15 86.7697ZM35.115 96.5087C36.369 96.8597 37.167 97.9056 38.215 98.6416C36.996 98.1946 35.894 97.5447 35.115 96.5087ZM39.162 111.548C39.742 112.391 39.748 113.463 39.772 114.521C39.341 113.585 39.08 112.589 39.162 111.548ZM36.682 130.211C36.301 126.633 35.658 123.114 35.765 119.488C35.775 119.181 35.3 119.182 35.291 119.488C35.169 123.491 35.719 127.524 36.53 131.438C36.536 131.468 36.555 131.486 36.575 131.501C36.57 131.573 36.563 131.644 36.557 131.714C34.38 124.173 33.471 116.381 34.868 108.561C34.874 108.527 36.016 112.174 36.042 112.263C36.833 114.835 37.018 117.473 37.123 120.147C37.252 123.499 36.964 126.863 36.682 130.211ZM25.877 129.968C26.418 128.993 27.424 127.986 27.352 129.77C27.304 130.937 27.255 132.106 27.192 133.273C27.115 134.68 26.923 136.073 26.748 137.466C26.729 137.444 26.713 137.421 26.694 137.398C26.477 137.157 26.128 137.366 26.106 137.642C26.103 137.678 26.108 137.713 26.106 137.748C25.867 136.85 25.505 135.993 25.048 135.186C24.773 133.399 25.008 131.531 25.877 129.968ZM26.079 140.496C26.02 140.498 25.964 140.524 25.93 140.577C25.728 140.344 25.526 140.113 25.308 139.897C25.158 139.441 25.086 138.955 25.067 138.473C25.323 138.781 25.536 139.107 25.734 139.439C25.842 139.792 25.955 140.145 26.079 140.496ZM19.009 130.227C20.799 131.251 22.37 132.513 23.588 134.206C23.957 134.717 24.249 135.252 24.497 135.802C24.648 136.421 24.864 137.014 25.137 137.567C25.087 137.512 25.039 137.457 24.986 137.405C24.761 137.193 24.44 137.356 24.414 137.642C24.372 138.124 24.386 138.637 24.458 139.145C24.131 138.884 23.785 138.645 23.417 138.429C22.794 137.723 22.01 137.094 21.266 136.542C20.995 136.025 20.774 135.55 20.616 135.231C19.875 133.749 19.113 131.941 19.009 130.227ZM21.64 140.151C20.872 139.874 20.03 139.689 19.208 139.574C18.532 139.32 17.87 139.034 17.257 138.75C16.47 138.383 15.722 137.929 15.064 137.363C13.956 136.413 14.306 134.942 15.813 134.744C17.619 134.509 19.675 136.248 20.947 137.306C21.059 137.399 21.154 137.506 21.262 137.601C21.767 138.402 22.421 139.202 23.203 139.529C23.312 139.643 23.422 139.76 23.534 139.876C23.61 139.978 23.672 140.091 23.751 140.192C23.171 140.019 22.564 139.93 21.912 139.969C21.798 139.977 21.699 140.055 21.64 140.151ZM22.918 140.669C23.622 140.78 24.273 141.041 24.895 141.385C25.314 141.734 25.762 142.05 26.285 142.274C26.383 142.315 26.473 142.315 26.55 142.288C26.646 142.306 26.742 142.287 26.826 142.236C26.885 142.424 26.943 142.61 27.005 142.795C25.6 142.422 24.121 141.556 22.918 140.669ZM27.577 141.965C27.489 141.69 27.394 141.417 27.294 141.148C27.167 140.71 27.061 140.269 26.976 139.823C27.025 139.672 27.074 139.52 27.118 139.365C27.353 139.918 27.502 140.509 27.601 141.11C27.595 141.133 27.587 141.157 27.581 141.18C27.56 141.264 27.595 141.321 27.645 141.365C27.679 141.614 27.706 141.866 27.722 142.116C27.674 142.066 27.626 142.016 27.577 141.965ZM28.05 137.453C28.021 137.213 27.763 137.141 27.609 137.237C27.772 136.254 27.857 135.247 27.921 134.236C27.93 134.229 27.94 134.231 27.948 134.224C28.798 133.462 29.314 132.51 29.668 131.467C30.22 133.938 29.136 136.612 28.25 139.092C28.183 138.545 28.114 137.999 28.05 137.453ZM44.089 179.061C45.132 179.662 45.846 180.694 46.589 181.685C45.594 180.969 44.711 180.136 44.089 179.061ZM50.98 197.985C52.843 199.392 52.918 202.355 53.543 204.66C51.981 202.835 51.352 200.36 50.98 197.985ZM57.857 183.803C57.339 185.805 56.637 187.698 55.717 189.543C55.697 189.09 55.681 188.637 55.658 188.183C56.165 186.853 57.108 185.017 57.857 183.803ZM78.37 118.019C76.426 119.395 74.056 120.604 71.713 120.793C71.835 120.59 71.949 120.385 72.056 120.185C72.127 120.053 72.05 119.908 71.935 119.842C74.092 119.417 76.248 118.661 78.37 118.019ZM79.203 111.491C77.986 113.45 76.529 115.158 74.785 116.686C73.796 117.554 72.704 118.301 71.643 119.082C71.172 119.27 70.708 119.46 70.26 119.644C70.049 119.731 70.046 120.091 70.299 120.09C70.06 120.269 69.829 120.458 69.604 120.659C69.452 120.624 69.299 120.584 69.149 120.538C69.297 120.244 69.454 119.953 69.565 119.643C70.911 118.484 72.001 116.947 72.731 115.258C74.445 113.227 76.496 111.603 79.203 111.491ZM72.166 107.099C72.697 106.53 73.234 110.596 73.209 110.226C73.32 111.781 72.752 113.372 72.147 114.773C71.601 116.036 70.807 117.081 69.94 118.071C69.96 117.913 70 117.756 70.007 117.597C70.027 117.227 69.501 116.991 69.252 117.285C69.175 117.377 69.097 117.471 69.018 117.563C69.029 117.261 69.046 116.96 69.023 116.651C69.014 116.533 68.964 116.448 68.898 116.381C69.001 115.368 69 114.336 68.871 113.326C69.482 110.992 70.591 108.785 72.166 107.099ZM59.508 115.138C59.131 113.917 59.373 113.68 60.604 113.918C61.431 114.078 62.203 114.633 62.848 115.142C63.342 115.533 63.758 115.986 64.149 116.459C64.493 117.226 64.895 118.005 65.386 118.692C65.487 119.401 65.645 120.092 65.83 120.776C62.961 120.014 60.417 118.075 59.508 115.138ZM64.31 115.32C63.569 113.593 63.091 111.745 62.878 110.028C62.791 109.33 62.744 106.592 64.442 107.452C66.057 108.274 67.09 109.675 67.703 111.329C67.979 112.075 68.111 112.852 68.18 113.64C67.935 114.831 67.82 116.036 67.835 117.226C67.741 117.428 67.654 117.636 67.582 117.849C67.454 117.259 67.274 116.678 67.009 116.108C66.874 115.822 66.364 115.954 66.402 116.273C66.535 117.398 66.809 118.491 67.063 119.588C66.747 119.264 66.45 118.917 66.168 118.551C66.169 118.529 66.181 118.511 66.175 118.486C65.95 117.409 65.25 116.271 64.31 115.32ZM66.446 121.4C66.539 121.395 66.635 121.401 66.728 121.392C66.751 121.39 66.763 121.374 66.781 121.367C66.922 121.811 67.052 122.26 67.192 122.705C67.138 122.876 67.082 123.046 67.028 123.215C66.817 122.614 66.62 122.01 66.446 121.4ZM65.424 130.747C65.461 130.721 65.499 130.694 65.532 130.672C65.683 130.577 65.671 130.415 65.587 130.31C66.469 129.242 67.576 128.151 68.845 127.636C67.975 129.034 66.709 129.955 65.391 130.866C65.401 130.827 65.413 130.787 65.424 130.747ZM61.281 133.774C62.01 134.974 62.247 136.279 62.374 137.621C61.896 136.37 61.283 135.125 61.281 133.774ZM58.491 142.513C59.379 144.073 59.474 145.883 59.58 147.672C58.747 146.106 58.076 144.122 58.491 142.513ZM58.226 163.741C59.23 161.143 60.253 158.551 61.696 156.12C64.744 150.985 68.827 146.547 71.44 141.147C71.55 140.918 71.232 140.727 71.096 140.947C67.973 146.032 64.493 150.854 61.284 155.882C60.209 157.567 59.389 159.354 58.651 161.172C58.939 159.501 59.238 157.831 59.554 156.164C62.942 146.712 69.38 138.033 78.872 134.612C78.872 134.612 75.89 141.409 75.432 142.206C73.516 145.543 71.307 148.711 69.054 151.827C65.248 157.093 61.62 162.441 57.614 167.539C57.807 166.269 58.018 165.006 58.226 163.741ZM55.108 209.884C56.359 207.673 56.922 204.75 58.951 203.229C58.648 206.284 56.757 208.626 54.968 211.015C55.017 210.638 55.064 210.262 55.108 209.884ZM38.242 138.939C38.842 137.302 39.33 135.665 40.209 134.167C40.239 135.937 39.06 137.535 38.251 139.172C38.248 139.095 38.246 139.017 38.242 138.939ZM43.249 170.683C41.852 168.614 40.185 166.706 38.535 164.865C36.128 162.176 32.932 160.426 30.552 157.746C30.391 157.567 30.143 157.826 30.291 158.008C32.343 160.53 35.204 162.135 37.391 164.523C38.752 166.009 40.003 167.569 41.236 169.144C39.911 168.252 38.497 167.477 37.15 166.721C31.453 163.525 28.204 159.518 24.403 154.32C23.073 152.502 20.429 150.779 24.777 151.86C28.243 152.723 31.423 155.498 34.018 157.773C38.309 161.536 41.334 165.832 44.094 170.616C44.302 171.139 44.512 171.661 44.725 172.182C44.279 171.64 43.779 171.148 43.249 170.683ZM44.514 168.771C44.266 163.494 43.334 158.275 43.789 152.96C43.804 152.789 43.546 152.796 43.527 152.96C42.992 157.506 43.202 162.073 43.704 166.612C43.219 165.267 42.755 163.915 42.331 162.549C42.371 162.497 42.396 162.432 42.379 162.35C41.227 157.053 40.761 152.121 41.953 146.794C42.609 143.861 43.639 141.069 44.469 138.21C44.65 141.991 45.598 145.935 45.568 149.593C45.51 156.255 45.106 162.869 44.795 169.516C44.696 169.27 44.609 169.018 44.514 168.771ZM52.786 145.638C53.335 147.949 52.134 149.952 51.178 152.021C50.823 149.87 51.559 147.394 52.786 145.638ZM48.136 116.973C48.036 117.776 47.837 118.549 47.54 119.332C47.283 120.012 46.923 120.653 46.606 121.31C46.594 121.23 46.583 121.15 46.573 121.069C46.734 119.648 47.27 118.153 48.136 116.973ZM45.854 123.28C47.244 133.523 48.896 143.745 50.419 153.98C50.415 153.996 50.409 154.01 50.405 154.026C50.382 154.106 50.413 154.176 50.457 154.235C51.039 158.158 51.605 162.083 52.124 166.011C51.28 164.502 50.002 163.197 48.481 162.631C48.263 162.549 48.01 162.759 48.02 162.983C48.122 165.505 49.94 167.92 52.428 168.415C52.842 171.646 53.233 174.878 53.569 178.118C54.096 183.199 54.351 188.184 54.358 193.115C52.382 185.095 47.94 177.342 44.98 170.003C44.978 169.997 44.975 169.991 44.973 169.984C45.061 169.988 45.15 169.948 45.175 169.846C46.3 165.208 46.165 160.387 46.221 155.64C46.283 150.341 46.597 145.03 45.697 139.776C45.798 138.457 45.56 137.254 45.009 136.155C45.214 135.308 45.397 134.455 45.528 133.582C45.598 133.12 44.921 132.907 44.81 133.385C44.665 134.011 44.569 134.647 44.509 135.293L44.507 135.289C44.243 136.564 43.924 137.823 43.55 139.069C42.672 142.237 41.567 145.298 40.871 148.522C40.269 151.317 40.388 154.249 40.818 157.123C39.503 151.795 38.655 146.357 38.323 140.886C39.099 139.741 39.652 138.311 40.177 137.082C40.721 135.811 41.201 134.382 40.809 133.005C40.712 132.664 40.298 132.655 40.111 132.913C39.279 134.065 38.65 135.402 38.183 136.783C38.158 134.925 38.183 133.067 38.283 131.208C38.664 124.131 40.319 117.314 43.104 110.997C43.229 111.511 43.357 112.023 43.471 112.545C43.515 112.754 43.867 112.71 43.847 112.493C43.776 111.679 43.663 110.873 43.535 110.071C43.681 109.756 43.825 109.44 43.976 109.128C44.579 113.851 45.216 118.57 45.854 123.28ZM52.106 167.811C50.408 167.144 49.126 165.396 48.828 163.608C50.422 164.487 51.263 166.204 52.106 167.811ZM52.167 83.8526C50.713 78.0756 50.592 72.7526 50.134 66.8756C50.041 65.6846 49.95 65.4326 49.574 64.6936C50.244 66.0066 51.652 67.1816 52.64 68.2096C57.474 73.2406 56.86 80.1347 55.185 86.3407C55.155 86.4507 55.209 86.5197 55.28 86.5567C55.071 87.1347 54.872 87.7176 54.649 88.2876C55.803 82.8306 54.963 76.3147 52.86 71.3827C52.793 71.2247 52.559 71.3407 52.593 71.4937C53.364 74.8897 54.194 78.1487 54.407 81.6467C54.578 84.4557 54.074 87.1886 53.962 89.9756C53.623 90.7816 53.253 91.5567 52.889 92.3407C53.283 89.4247 52.914 86.8256 52.167 83.8526ZM71.185 73.3356C71.649 74.7706 70.777 75.9817 70.026 77.2047C69.843 75.8477 70.338 74.4066 71.185 73.3356ZM78.636 74.9436C78.758 75.0516 78.528 75.1476 78.352 75.2516C77.978 75.4726 77.618 75.5676 77.185 75.5606C76.535 75.5496 75.895 75.3927 75.251 75.2877C75.679 74.9577 76.109 74.6296 76.545 74.3106C76.723 74.3276 76.899 74.3456 77.059 74.3736C77.573 74.4626 78.23 74.5876 78.636 74.9436ZM82.365 69.4677C82.258 69.4477 82.166 69.4626 82.085 69.4906C80.527 67.9306 80.081 65.8206 79.998 63.6736C79.955 62.5386 80.103 61.3936 80.305 60.2796C80.373 59.9296 80.454 59.5836 80.548 59.2386C80.577 59.1216 80.529 58.8646 80.476 58.6446C80.501 58.6716 80.513 58.7076 80.546 58.7266C80.728 59.1496 80.944 59.5556 81.193 59.9436C81.433 60.3536 81.786 60.6486 82.138 60.9476C82.008 63.7636 82.236 66.6247 82.372 69.4697C82.37 69.4687 82.367 69.4687 82.365 69.4677ZM91.471 64.4076C92.77 63.7746 94.323 63.2926 95.765 63.6396C97.853 64.1436 96.495 65.8216 95.537 66.5126C93.031 68.3186 90.051 68.9706 87.169 69.8606C87.097 69.7256 86.966 69.6306 86.774 69.6546C86.32 69.7106 85.866 69.7576 85.413 69.8076C86.119 69.3846 86.736 68.8376 87.163 68.0886C87.312 67.8246 87.135 67.4886 86.858 67.4346C87.104 67.1876 87.367 66.9516 87.647 66.7266C87.824 66.5956 87.994 66.4606 88.165 66.3256C89.25 65.5416 90.457 64.9016 91.471 64.4076ZM87.418 62.5716C87.965 61.5436 88.657 60.6116 89.482 59.7946C89.776 59.5036 92.947 57.7606 92.761 58.6056C91.79 63.0316 88.421 65.1897 85.156 67.6897C85.841 65.9557 86.541 64.2146 87.418 62.5716ZM82.792 68.6067C82.731 64.8807 82.475 61.1576 83.066 57.4566C83.075 57.4046 84.03 53.7176 84.587 54.5076C85.407 55.6756 85.991 56.9306 86.436 58.2886C87.215 60.6696 86.297 62.8306 85.207 64.8806C85.083 64.8176 84.93 64.8247 84.81 64.9547C83.94 65.9097 83.271 67.1836 82.946 68.4996C82.895 68.5356 82.845 68.5727 82.792 68.6067ZM83.558 69.6676C83.53 69.5956 83.464 69.5557 83.389 69.5507C83.401 69.4847 83.409 69.4186 83.423 69.3516C84.029 69.2356 84.62 69.0716 85.202 68.8796C84.706 69.2196 84.142 69.4716 83.558 69.6676ZM95.081 79.0146C90.684 78.7126 87.398 75.2107 85.04 71.6487C85.174 71.6687 85.309 71.6847 85.442 71.7017C86.876 73.1277 89.23 73.9577 91.65 74.1777C93.068 75.6627 94.198 77.1716 95.081 79.0146ZM91.257 73.1917C89.413 72.9407 87.819 72.2617 86.275 71.3427C86.285 71.2507 86.278 71.1556 86.239 71.0676C87.473 70.8296 88.734 70.3766 89.94 69.8896C93.036 69.5576 96.591 69.9487 98.045 72.1607C98.677 73.1227 91.802 73.2667 91.257 73.1917Z" fill="#455C6B"/>
<path d="M69.826 145.656C68.048 147.456 66.689 149.743 65.463 151.937C65.366 152.108 65.622 152.256 65.727 152.089C67.07 149.955 68.915 148.092 70.088 145.857C70.174 145.692 69.962 145.517 69.826 145.656Z" fill="#455C6B"/>
<path d="M28.831 155.119C28.677 154.99 28.457 155.207 28.609 155.34C29.825 156.389 30.961 157.537 32.211 158.544C32.354 158.659 32.529 158.485 32.412 158.343C31.389 157.095 30.053 156.157 28.831 155.119Z" fill="#455C6B"/>
<path d="M42.739 125.54C43.005 127.85 44.038 131.058 46.373 132.068C46.436 132.137 46.485 132.224 46.557 132.285C46.662 132.377 46.883 132.329 46.865 132.157C46.863 132.138 46.856 132.119 46.854 132.101C46.928 131.996 46.938 131.839 46.8 131.769C46.794 131.765 46.788 131.76 46.782 131.756C46.568 130.684 45.993 129.597 45.575 128.614C45.043 127.363 44.382 126.183 43.339 125.29C43.135 125.116 42.701 125.205 42.739 125.54ZM45.017 129.258C45.214 129.744 45.389 130.313 45.615 130.85C44.559 129.746 43.922 128.134 43.616 126.625C44.222 127.411 44.637 128.32 45.017 129.258Z" fill="#455C6B"/>
<path d="M15.95 64.936C14.525 63.656 12.672 62.994 11.045 62.016C10.821 61.881 10.62 62.228 10.841 62.365C12.45 63.358 14.158 64.192 15.796 65.137C15.918 65.207 16.061 65.034 15.95 64.936Z" fill="#455C6B"/>
<path d="M48.803 21.6323C48.24 22.0633 47.589 22.4703 46.874 22.5643C46.51 22.6123 46.489 23.1243 46.874 23.1463C47.645 23.1913 48.259 22.9963 48.922 22.6083C49.424 22.3153 50.2 21.8203 50.324 21.2173C50.356 21.0623 50.256 20.9093 50.088 20.9073C49.561 20.9033 49.194 21.3323 48.803 21.6323Z" fill="#455C6B"/>
<path d="M17.916 49.8735C18.072 49.7145 17.946 49.4975 17.751 49.4745C17.34 49.4265 16.944 49.5265 16.526 49.4495C16.062 49.3645 15.621 49.0905 15.262 48.7945C15.042 48.6135 14.75 48.8935 14.945 49.1105C15.592 49.8285 17.027 50.7895 17.916 49.8735Z" fill="#455C6B"/>
<path d="M83.696 72.6659C83.241 72.3949 82.866 71.9959 82.638 71.5199C82.517 71.2669 82.085 71.4479 82.185 71.7099C82.397 72.2709 82.671 72.7579 83.139 73.1449C83.548 73.4859 84.201 73.9359 84.754 73.7569C84.888 73.7139 84.979 73.5479 84.893 73.4189C84.624 73.0189 84.099 72.9049 83.696 72.6659Z" fill="#455C6B"/>
<path d="M21.563 55.9487C21.546 56.1127 21.785 56.1597 21.86 56.0297C22.781 54.4237 22.948 52.3677 22.562 50.5797C22.515 50.3647 22.236 50.3167 22.09 50.4547C21.028 51.4627 20.516 53.5717 21.143 54.9327C21.252 55.1737 21.664 55.0007 21.571 54.7527C21.189 53.7377 21.441 52.2937 22.084 51.3447C22.185 52.9137 21.726 54.3797 21.563 55.9487Z" fill="#455C6B"/>
<path d="M44.259 30.2308C44.283 30.4318 44.546 30.4308 44.571 30.2308C44.609 29.9358 44.65 29.5268 44.672 29.0658C44.776 29.0138 44.84 28.8838 44.737 28.7738C44.719 28.7548 44.703 28.7358 44.686 28.7168C44.734 26.8668 44.432 24.4378 42.524 24.6798C42.391 24.6968 42.259 24.7838 42.268 24.9358C42.358 26.4478 43.175 27.6878 44.19 28.7508C44.214 29.3578 44.218 29.9018 44.259 30.2308ZM42.81 25.1968C43.788 25.3218 44.062 26.7458 44.156 28.0998C43.474 27.2508 42.93 26.2838 42.81 25.1968Z" fill="#455C6B"/>
</svg>
